<svg width="31" height="30" viewBox="0 0 31 30" fill="none" xmlns="http://www.w3.org/2000/svg">
<path fill-rule="evenodd" clip-rule="evenodd" d="M15.2776 25C20.8004 25 25.2776 20.5228 25.2776 15C25.2776 9.47715 20.8004 5 15.2776 5C9.75474 5 5.27759 9.47715 5.27759 15C5.27759 20.5228 9.75474 25 15.2776 25ZM15.2776 26.25C21.4908 26.25 26.5276 21.2132 26.5276 15C26.5276 8.7868 21.4908 3.75 15.2776 3.75C9.06438 3.75 4.02759 8.7868 4.02759 15C4.02759 21.2132 9.06438 26.25 15.2776 26.25Z" fill="#002A61"/>
<path d="M14.6526 8.75V7.5H15.9026V8.75H17.1526C18.8785 8.75 20.2776 10.1491 20.2776 11.875H19.0276C19.0276 10.8395 18.1881 10 17.1526 10H13.4026C12.3671 10 11.5276 10.8395 11.5276 11.875V12.2068C11.5276 13.1399 12.2137 13.931 13.1374 14.0629L17.5945 14.6996C19.1341 14.9196 20.2776 16.2381 20.2776 17.7932V18.125C20.2776 19.8509 18.8785 21.25 17.1526 21.25H15.9026V22.5H14.6526V21.25H13.4026C11.6767 21.25 10.2776 19.8509 10.2776 18.125H11.5276C11.5276 19.1605 12.3671 20 13.4026 20H17.1526C18.1881 20 19.0276 19.1605 19.0276 18.125V17.7932C19.0276 16.8601 18.3415 16.069 17.4178 15.9371L12.9606 15.3004C11.4211 15.0804 10.2776 13.7619 10.2776 12.2068V11.875C10.2776 10.1491 11.6767 8.75 13.4026 8.75H14.6526Z" fill="#002A61"/>
</svg>
