<svg width="31" height="30" viewBox="0 0 31 30" fill="none" xmlns="http://www.w3.org/2000/svg">
<path fill-rule="evenodd" clip-rule="evenodd" d="M20.9026 5H9.65259V3.75H8.40259V5H5.27759C4.58723 5 4.02759 5.55964 4.02759 6.25V23.75C4.02759 24.4404 4.58723 25 5.27759 25H25.2776C25.9679 25 26.5276 24.4404 26.5276 23.75V6.25C26.5276 5.55964 25.9679 5 25.2776 5H22.1526V3.75H20.9026V5ZM8.40259 7.5V6.25H5.27759V8.75H25.2776V6.25H22.1526V7.5H20.9026V6.25H9.65259V7.5H8.40259ZM25.2776 10V23.75H5.27759V10H25.2776Z" fill="#002A61"/>
<path d="M10.9026 12.5H12.1526V13.75H10.9026V12.5Z" fill="#002A61"/>
<path d="M14.6526 12.5H15.9026V13.75H14.6526V12.5Z" fill="#002A61"/>
<path d="M18.4026 12.5H19.6526V13.75H18.4026V12.5Z" fill="#002A61"/>
<path d="M22.1526 12.5H23.4026V13.75H22.1526V12.5Z" fill="#002A61"/>
<path d="M7.15259 16.25H8.40259V17.5H7.15259V16.25Z" fill="#002A61"/>
<path d="M10.9026 16.25H12.1526V17.5H10.9026V16.25Z" fill="#002A61"/>
<path d="M14.6526 16.25H15.9026V17.5H14.6526V16.25Z" fill="#002A61"/>
<path d="M18.4026 16.25H19.6526V17.5H18.4026V16.25Z" fill="#002A61"/>
<path d="M22.1526 16.25H23.4026V17.5H22.1526V16.25Z" fill="#002A61"/>
<path d="M7.15259 20H8.40259V21.25H7.15259V20Z" fill="#002A61"/>
<path d="M10.9026 20H12.1526V21.25H10.9026V20Z" fill="#002A61"/>
<path d="M14.6526 20H15.9026V21.25H14.6526V20Z" fill="#002A61"/>
</svg>
